<?xml version="1.0" standalone="no"?><!DOCTYPE svg PUBLIC "-//W3C//DTD SVG 1.1//EN" "http://www.w3.org/Graphics/SVG/1.1/DTD/svg11.dtd"><svg t="1695007941218" class="icon" viewBox="0 0 1024 1024" version="1.1" xmlns="http://www.w3.org/2000/svg" p-id="17724" xmlns:xlink="http://www.w3.org/1999/xlink" width="200" height="200"><path d="M459.377389 546.249553c9.447774 0 17.196207 7.641538 17.374033 17.04935v330.437308c0 9.446775-7.641538 17.196207-17.04935 17.374033h-330.437307c-9.446775 0-17.196207-7.642537-17.374033-17.04935v-330.437308c0-9.447774 7.642537-17.196207 17.04935-17.374033h330.437307z m434.358822 0c9.446775 0 17.196207 7.641538 17.374033 17.04935v330.437308c0 9.446775-7.642537 17.196207-17.04935 17.374033h-330.437308c-9.447774 0-17.196207-7.642537-17.374033-17.04935v-330.437308c0-9.447774 7.641538-17.196207 17.04935-17.374033h330.437308z m-488.914545 71.928757H183.820488V839.180488h221.001178V618.17831z m434.358822 0H618.17831V839.180488H839.180488V618.17831zM459.377389 111.890732c9.447774 0 17.196207 7.642537 17.374033 17.04935v330.437307c0 9.447774-7.641538 17.196207-17.04935 17.374033h-330.437307c-9.446775 0-17.196207-7.641538-17.374033-17.04935v-330.437307c0-9.446775 7.642537-17.196207 17.04935-17.374033h330.437307z m434.358822 0c9.446775 0 17.196207 7.642537 17.374033 17.04935v330.437307c0 9.447774-7.642537 17.196207-17.04935 17.374033h-330.437308c-9.447774 0-17.196207-7.641538-17.374033-17.04935v-330.437307c0-9.446775 7.641538-17.196207 17.04935-17.374033h330.437308z m-488.914545 71.929756H183.820488v221.001178h221.001178V183.820488zM839.180488 183.820488H618.17831v221.001178H839.180488V183.820488z" fill="#000000" p-id="17725"></path></svg>