<?xml version="1.0" standalone="no"?><!DOCTYPE svg PUBLIC "-//W3C//DTD SVG 1.1//EN" "http://www.w3.org/Graphics/SVG/1.1/DTD/svg11.dtd"><svg t="1694998922231" class="icon" viewBox="0 0 1024 1024" version="1.1" xmlns="http://www.w3.org/2000/svg" p-id="3793" xmlns:xlink="http://www.w3.org/1999/xlink" width="200" height="200"><path d="M341.4682 569.1464H173.47993599999998c-61.7656 0-111.9918 50.2272-111.9918 111.9928v167.9872c0 61.7667 50.2262 111.9939 111.9918 111.9939h167.989248c61.738 0 111.9928-50.2272 111.9928-111.9939v-167.9872C453.461 619.3736 403.2061 569.1464 341.4682 569.1464zM397.4636 849.1264c0 30.8705-25.1269 55.9964-55.9954 55.9964H173.47993599999998c-30.8961 0-55.9954-25.1249-55.9954-55.9964v-167.9872c0-30.8695 25.0993-55.9985 55.9954-55.9985h167.989248c30.8685 0 55.9954 25.1279 55.9954 55.9985V849.1264zM529.2524 532.9459 761.4392 300.759v184.392704c0 15.4757 12.5225 27.9992 27.9982 27.9992 15.4481 0 27.9982-12.5235 27.9982-27.9992V233.16889600000002c0-15.4747-12.5501-27.9972-27.9982-27.9972H537.4545919999999c-15.4757 0-27.9982 12.5225-27.9982 27.9972 0 15.4757 12.5225 27.9982 27.9982 27.9982h184.392704L489.6604 493.355c-10.9363 10.9363-10.9363 28.6536 0 39.5909 5.4692 5.4682 12.6321 8.2022 19.796 8.2022C516.6193 541.1482 523.7832 538.4141 529.2524 532.9459zM845.4328 65.1817H173.47993599999998c-61.7656 0-111.9918 50.2272-111.9918 111.9928v307.97823999999997c0 15.4757 12.5225 27.9992 27.9982 27.9992 15.4481 0 27.9982-12.5235 27.9982-27.9992v-307.97823999999997c0-30.8695 25.0993-55.9964 55.9954-55.9964h671.952896c30.8695 0 55.9974 25.1279 55.9974 55.9964v671.952896c0 30.8705-25.1279 55.9964-55.9974 55.9964h-307.97823999999997c-15.4757 0-27.9982 12.5235-27.9982 27.9982 0 15.4767 12.5225 28.0003 27.9982 28.0003h307.97823999999997c61.738 0 111.9928-50.2272 111.9928-111.9939V177.17350399999998C957.4257 115.4079 907.1708 65.1817 845.4328 65.1817z" p-id="3794"></path></svg>