<?xml version="1.0" standalone="no"?><!DOCTYPE svg PUBLIC "-//W3C//DTD SVG 1.1//EN" "http://www.w3.org/Graphics/SVG/1.1/DTD/svg11.dtd"><svg class="icon" width="200px" height="200.00px" viewBox="0 0 1024 1024" version="1.1" xmlns="http://www.w3.org/2000/svg"><path d="M770.9 923.3H253.1c-83.8 0-151.9-68.2-151.9-151.9V253.6c0-83.8 68.2-151.9 151.9-151.9h517.8c83.8 0 151.9 68.2 151.9 151.9v517.8c0 83.8-68.1 151.9-151.9 151.9zM253.1 181.7c-39.7 0-71.9 32.3-71.9 71.9v517.8c0 39.7 32.3 71.9 71.9 71.9h517.8c39.7 0 71.9-32.3 71.9-71.9V253.6c0-39.7-32.3-71.9-71.9-71.9H253.1z" /></svg>