<?xml version="1.0" standalone="no"?><!DOCTYPE svg PUBLIC "-//W3C//DTD SVG 1.1//EN" "http://www.w3.org/Graphics/SVG/1.1/DTD/svg11.dtd"><svg class="icon" width="200px" height="200.00px" viewBox="0 0 1024 1024" version="1.1" xmlns="http://www.w3.org/2000/svg"><path d="M565.9648 512l261.8368-261.8368c7.9872-7.9872 7.9872-20.992 0-28.9792-7.9872-7.9872-20.992-7.9872-28.9792 0L536.9856 483.0208 275.1488 221.184c-7.9872-7.9872-20.992-7.9872-28.9792 0-7.9872 7.9872-7.9872 20.992 0 28.9792L508.0064 512 246.1696 773.8368c-7.9872 7.9872-7.9872 20.992 0 28.9792 7.9872 7.9872 20.992 7.9872 28.9792 0l261.8368-261.8368L798.8224 802.816c7.9872 7.9872 20.992 7.9872 28.9792 0 7.9872-7.9872 7.9872-20.992 0-28.9792L565.9648 512z" /></svg>